<svg width="35" height="34" viewBox="0 0 35 34" fill="none" xmlns="http://www.w3.org/2000/svg">
<g clip-path="url(#clip0_517_235)">
<path d="M7.34746 -0.0290565C7.42728 -0.02972 7.5071 -0.0303834 7.58935 -0.0310669C9.08765 -0.0167779 10.6185 0.54455 11.7552 1.52734C11.8188 1.58135 11.8824 1.63537 11.9479 1.69102C13.2497 2.8221 14.1554 4.48639 14.2986 6.21871C14.3075 6.46486 14.3096 6.70975 14.3077 6.95605C14.3075 7.04254 14.3073 7.12903 14.3072 7.21814C14.2988 7.81956 14.2296 8.36939 14.0646 8.94668C14.0135 9.16207 14.0074 9.22975 14.0794 9.42968C14.1558 9.53611 14.1558 9.53611 14.256 9.63264C14.3125 9.6904 14.3125 9.6904 14.3702 9.74932C14.412 9.79097 14.4538 9.83261 14.4968 9.87552C14.5409 9.92027 14.585 9.96502 14.6305 10.0111C14.7789 10.1614 14.928 10.311 15.0772 10.4606C15.1835 10.568 15.2899 10.6755 15.3962 10.7829C15.6855 11.0751 15.9754 11.3666 16.2656 11.6579C16.4467 11.8398 16.6278 12.0218 16.8088 12.2039C17.3101 12.7079 17.8116 13.2117 18.3138 13.7148C18.3459 13.747 18.378 13.7792 18.4111 13.8124C18.4433 13.8447 18.4756 13.8769 18.5087 13.9102C18.574 13.9756 18.6393 14.041 18.7045 14.1063C18.7369 14.1388 18.7693 14.1712 18.8027 14.2046C19.3273 14.7304 19.8505 15.2576 20.3731 15.7854C20.9097 16.3273 21.4475 16.868 21.9865 17.4074C22.2892 17.7103 22.5912 18.0138 22.892 18.3186C23.1748 18.6051 23.4592 18.8901 23.7449 19.1739C23.8495 19.2784 23.9535 19.3835 24.057 19.4891C24.1982 19.6332 24.3414 19.7751 24.4851 19.9166C24.5257 19.959 24.5663 20.0014 24.6081 20.0451C24.8317 20.2608 24.8317 20.2608 25.1257 20.3312C25.2773 20.3153 25.4196 20.2892 25.5677 20.2539C25.636 20.2429 25.7043 20.232 25.7747 20.2207C25.8351 20.2097 25.8955 20.1988 25.9578 20.1875C27.9325 19.8525 29.8128 20.1524 31.4612 21.3081C32.9925 22.4731 34.0605 24.1051 34.3333 26.0312C34.4994 28.467 34.4994 28.467 33.8892 29.3101C33.6503 29.5381 33.3959 29.6053 33.0716 29.6172C32.5105 29.5402 32.1851 29.1785 31.8096 28.7855C31.716 28.6903 31.6223 28.5951 31.5286 28.4999C31.3985 28.3672 31.2693 28.2336 31.1402 28.1C30.9141 27.8663 30.6872 27.6337 30.4594 27.4018C30.3386 27.2785 30.2183 27.1547 30.0987 27.0304C29.5216 26.4397 29.064 26.1401 28.2239 26.0977C27.7483 26.1208 27.3308 26.3354 26.9622 26.6289C26.5983 27.0348 26.46 27.4445 26.4102 27.9819C26.4915 28.9255 27.0615 29.4727 27.7145 30.1051C27.8331 30.2218 27.9517 30.3385 28.0704 30.4552C28.2555 30.6366 28.441 30.8178 28.6269 30.9985C28.8077 31.1745 28.9875 31.3515 29.1671 31.5287C29.2227 31.5822 29.2783 31.6357 29.3356 31.6908C29.6866 32.0387 29.9382 32.3397 29.9572 32.855C29.8885 33.1966 29.8057 33.4448 29.5147 33.6514C28.366 34.2404 26.6845 34.1761 25.4738 33.814C25.3952 33.7877 25.3166 33.7614 25.2356 33.7344C25.1584 33.7088 25.0812 33.6832 25.0017 33.6568C23.1806 33.001 21.7717 31.6556 20.9358 29.9202C20.2587 28.3425 20.2622 26.6184 20.6536 24.9687C20.6929 24.8118 20.6929 24.8118 20.6536 24.6367C20.5347 24.4668 20.3889 24.3258 20.2417 24.1804C20.1973 24.1353 20.153 24.0902 20.1073 24.0438C19.9581 23.8924 19.8077 23.7423 19.6573 23.5921C19.5502 23.4841 19.4432 23.376 19.3363 23.2678C19.0453 22.9738 18.7532 22.6809 18.4607 22.3883C18.2169 22.1442 17.9735 21.8996 17.7301 21.655C17.1887 21.111 16.6466 20.5679 16.1038 20.0253C16.0549 19.9765 16.0549 19.9765 16.0051 19.9267C15.9562 19.8778 15.9562 19.8778 15.9063 19.8279C15.3778 19.2995 14.8509 18.7695 14.3249 18.2388C13.7847 17.6938 13.2433 17.1502 12.7006 16.6077C12.3959 16.3032 12.0918 15.9981 11.789 15.6917C11.5041 15.4036 11.2177 15.1172 10.93 14.8319C10.8246 14.7269 10.7198 14.6213 10.6156 14.5151C10.4734 14.3703 10.3292 14.2277 10.1844 14.0854C10.1435 14.0428 10.1026 14.0002 10.0605 13.9563C9.83562 13.7395 9.83562 13.7395 9.54002 13.6689C9.38887 13.6849 9.24667 13.711 9.09892 13.7461C9.03679 13.7546 8.97467 13.7631 8.91066 13.7719C8.83179 13.7839 8.83179 13.7839 8.75133 13.7962C6.68393 14.1016 4.83794 13.8262 3.10498 12.6208C1.57055 11.4694 0.75801 9.89066 0.360532 8.05331C0.233724 7.04126 0.152756 5.5616 0.798139 4.71484C0.950203 4.52812 1.07392 4.47516 1.30864 4.42431C1.36231 4.41147 1.41598 4.39863 1.47128 4.3854C1.90782 4.37945 2.19414 4.56262 2.49952 4.85435C2.61173 4.96794 2.72306 5.08241 2.83365 5.19758C2.92495 5.29032 3.01625 5.38306 3.10758 5.47577C3.23464 5.60514 3.36093 5.73525 3.48722 5.86539C3.70768 6.09249 3.92876 6.31898 4.15072 6.54462C4.26849 6.6645 4.38575 6.78487 4.50241 6.90582C4.98117 7.3942 5.46774 7.8475 6.17705 7.90234C6.78084 7.90049 7.3233 7.71907 7.7708 7.30468C8.16848 6.79683 8.30286 6.2844 8.23564 5.64453C7.99055 4.55726 6.74347 3.68379 5.98532 2.93573C5.8243 2.77671 5.66369 2.61729 5.50313 2.45781C5.45374 2.40931 5.40435 2.36082 5.35346 2.31085C4.80807 1.76812 4.80807 1.76812 4.75606 1.4132C4.76137 0.781999 4.76137 0.781999 4.98173 0.531246C5.6237 -0.0470949 6.52989 -0.0250878 7.34746 -0.0290565Z" fill="white"/>
<path d="M10.9583 17.6641C11.3088 17.957 11.6354 18.2656 11.9575 18.5893C12.0087 18.6405 12.06 18.6918 12.1127 18.7445C12.2807 18.9125 12.4484 19.0808 12.6161 19.249C12.7331 19.3661 12.85 19.4831 12.967 19.6001C13.2738 19.9072 13.5804 20.2145 13.8869 20.5217C14.2002 20.8357 14.5137 21.1495 14.8271 21.4632C15.4413 22.0782 16.0553 22.6933 16.6692 23.3086C16.4141 23.6134 16.1501 23.9039 15.8689 24.1846C15.8305 24.2233 15.7921 24.2619 15.7525 24.3017C15.6249 24.4298 15.4972 24.5576 15.3694 24.6855C15.2774 24.7778 15.1854 24.8701 15.0935 24.9625C14.8444 25.2123 14.5952 25.462 14.3459 25.7116C14.19 25.8677 14.0341 26.0239 13.8783 26.18C13.39 26.6692 12.9016 27.1582 12.413 27.6471C11.85 28.2104 11.2874 28.7741 10.7252 29.3383C10.2898 29.7751 9.85408 30.2115 9.41803 30.6476C9.15793 30.9078 8.89799 31.1681 8.63845 31.4289C8.39432 31.6741 8.14972 31.9188 7.90475 32.1632C7.81519 32.2527 7.72581 32.3424 7.63661 32.4323C7.06744 33.0054 6.54018 33.5281 5.75785 33.7883C5.64113 33.828 5.64113 33.828 5.52206 33.8685C4.63219 34.1466 3.57967 34.103 2.72391 33.7344C2.63904 33.7018 2.63904 33.7018 2.55245 33.6685C1.54777 33.235 0.880434 32.2991 0.467658 31.3233C0.160272 30.4255 0.226312 29.2868 0.598914 28.4219C0.620657 28.3653 0.6424 28.3087 0.664802 28.2504C1.04124 27.378 1.93337 26.6795 2.59776 26.017C2.68948 25.9254 2.78118 25.8336 2.87287 25.7419C3.11936 25.4954 3.36606 25.2491 3.61279 25.0028C3.87152 24.7445 4.13006 24.486 4.38862 24.2275C4.87718 23.7392 5.3659 23.251 5.85469 22.7629C6.41161 22.2067 6.96834 21.6503 7.52506 21.0939C8.66926 19.9504 9.81369 18.8072 10.9583 17.6641ZM10.215 22.8961C10.1557 22.955 10.0964 23.0139 10.0352 23.0745C9.87344 23.2351 9.71227 23.3964 9.55124 23.5578C9.41644 23.6928 9.28133 23.8275 9.14622 23.9622C8.82741 24.2801 8.50911 24.5985 8.19115 24.9172C7.86371 25.2454 7.53543 25.5728 7.20672 25.8997C6.92385 26.1811 6.6415 26.463 6.35956 26.7453C6.19146 26.9136 6.02317 27.0818 5.85439 27.2494C5.66622 27.4364 5.47915 27.6244 5.29216 27.8125C5.20864 27.8951 5.20864 27.8951 5.12343 27.9793C4.80888 28.2979 4.55784 28.5725 4.49795 29.032C4.54389 29.406 4.70074 29.6347 4.98173 29.8828C5.22265 30.035 5.42041 30.0232 5.70156 29.9944C6.16882 29.8473 6.50497 29.4413 6.84024 29.105C6.89892 29.0467 6.9576 28.9884 7.01806 28.9283C7.17814 28.7689 7.33792 28.6093 7.49754 28.4495C7.63109 28.3159 7.76484 28.1825 7.89859 28.049C8.21417 27.7342 8.52939 27.419 8.84439 27.1036C9.1689 26.7787 9.49401 26.4544 9.81943 26.1304C10.0993 25.8517 10.3789 25.5725 10.6581 25.2931C10.8247 25.1264 10.9913 24.9599 11.1584 24.7938C11.3446 24.6085 11.53 24.4225 11.7154 24.2364C11.7981 24.1544 11.7981 24.1544 11.8826 24.0707C12.3533 23.6023 12.3533 23.6023 12.5147 22.9766C12.5023 22.6933 12.4066 22.5286 12.22 22.3125C11.9655 22.0927 11.7764 22.0173 11.4379 22.0116C10.924 22.1344 10.5737 22.5355 10.215 22.8961Z" fill="white"/>
<path d="M31.594 -0.0207367C31.6757 -0.0244604 31.6757 -0.0244604 31.759 -0.0282593C32.2013 0.039838 32.5205 0.348685 32.8236 0.655258C32.8608 0.69226 32.898 0.729262 32.9363 0.767386C33.0142 0.845166 33.0919 0.923194 33.1693 1.00146C33.2873 1.12054 33.4063 1.23851 33.5255 1.35641C33.6015 1.43253 33.6774 1.5087 33.7533 1.58495C33.7885 1.61982 33.8238 1.6547 33.8602 1.69063C34.147 1.98287 34.36 2.28295 34.3706 2.70192C34.3574 2.97082 34.3015 3.14676 34.1683 3.37999C34.1321 3.44384 34.0958 3.5077 34.0585 3.57349C33.9973 3.67827 33.9973 3.67827 33.9348 3.78517C33.891 3.86046 33.8472 3.93576 33.802 4.01333C33.6525 4.2687 33.5012 4.52295 33.3496 4.77711C33.2941 4.8704 33.2386 4.96368 33.1832 5.05696C32.6847 5.89401 32.1813 6.7281 31.6727 7.55908C31.5818 7.708 31.4914 7.85718 31.4016 8.00673C31.3544 8.08478 31.3071 8.16283 31.2599 8.24088C31.2178 8.31082 31.1758 8.38076 31.1324 8.45282C30.94 8.74273 30.7503 8.91961 30.4153 9.03127C30.0148 9.07054 29.745 8.98979 29.4192 8.76564C29.2317 8.59765 29.0576 8.42031 28.888 8.23439C28.5057 8.55205 28.154 8.89292 27.8034 9.24498C27.7431 9.30527 27.6828 9.36557 27.6207 9.42769C27.4566 9.59174 27.2928 9.756 27.1289 9.9203C26.9572 10.0924 26.7853 10.2644 26.6134 10.4364C26.2885 10.7615 25.9637 11.0868 25.6391 11.4121C25.2692 11.7827 24.8991 12.1532 24.529 12.5236C23.7682 13.2851 23.0077 14.0468 22.2473 14.8086C22.0268 14.7039 21.8806 14.5908 21.7077 14.4169C21.6546 14.3637 21.6014 14.3105 21.5466 14.2558C21.4899 14.1983 21.4332 14.1409 21.3747 14.0818C21.3161 14.023 21.2576 13.9642 21.1972 13.9037C21.0419 13.7478 20.887 13.5916 20.7321 13.4353C20.5739 13.2757 20.4153 13.1165 20.2567 12.9573C19.9459 12.645 19.6356 12.3324 19.3255 12.0195C19.4173 11.8132 19.5231 11.6726 19.6824 11.5133C19.752 11.4434 19.752 11.4434 19.8229 11.372C19.8992 11.2963 19.8992 11.2963 19.977 11.2191C20.0306 11.1654 20.0841 11.1117 20.1393 11.0564C20.3168 10.8786 20.4948 10.7014 20.6728 10.5241C20.7964 10.4006 20.92 10.277 21.0436 10.1534C21.303 9.8941 21.5626 9.63506 21.8224 9.37619C22.1216 9.07796 22.4205 8.77939 22.7193 8.48062C23.0075 8.19234 23.2959 7.90425 23.5845 7.61626C23.7068 7.49417 23.829 7.37204 23.9513 7.24987C24.1227 7.07855 24.2944 6.90745 24.4662 6.73641C24.5162 6.68634 24.5662 6.63627 24.6178 6.58468C24.8875 6.31653 25.163 6.05934 25.452 5.81198C25.6092 5.67469 25.7545 5.52866 25.8997 5.37892C25.7832 5.12738 25.6278 4.92546 25.4574 4.70837C25.2782 4.45388 25.2815 4.22043 25.302 3.91798C25.4824 3.41683 25.8967 3.17696 26.3381 2.91878C26.3796 2.8943 26.4212 2.86983 26.464 2.84462C26.5531 2.79218 26.6424 2.73989 26.7317 2.68775C26.9705 2.5483 27.2086 2.40765 27.4467 2.26717C27.4952 2.23863 27.5437 2.21009 27.5936 2.18068C28.069 1.90045 28.5411 1.61508 29.0125 1.32814C29.0507 1.30488 29.089 1.28161 29.1284 1.25764C29.5057 1.02826 29.8825 0.798122 30.2584 0.566544C30.3143 0.532132 30.3703 0.49772 30.4279 0.462265C30.5293 0.399857 30.6305 0.33727 30.7316 0.27446C31.0262 0.0929593 31.2479 -0.0105244 31.594 -0.0207367Z" fill="white"/>
</g>
<defs>
<clipPath id="clip0_517_235">
<rect width="34" height="34" fill="white" transform="translate(0.333282)"/>
</clipPath>
</defs>
</svg>
